<?xml version="1.0" encoding="UTF-8"?><svg id="a" xmlns="http://www.w3.org/2000/svg" width="512" height="512" xmlns:xlink="http://www.w3.org/1999/xlink" viewBox="0 0 512 512"><defs><clipPath id="b"><rect x="345.8" y="211.6" width="107.6" height="56.3" style="fill:none;"/></clipPath></defs><path d="m36,11h440c13.8,0,25,11.2,25,25v440c0,13.8-11.2,25-25,25H36c-13.8,0-25-11.2-25-25V36c0-13.8,11.2-25,25-25Z" style="fill:#eff0e9;"/><path d="m476,506H36c-16.5,0-30-13.5-30-30V36c0-16.5,13.5-30,30-30h440c16.5,0,30,13.5,30,30v440c0,16.5-13.5,30-30,30ZM36,16c-11,0-20,9-20,20v440c0,11,9,20,20,20h440c11,0,20-9,20-20V36c0-11-9-20-20-20H36Z"/><path d="m177.8,112v3.1c0,21.9-14.2,37.5-35.9,37.5-27,0-40.6-18.7-40.6-40.1s17-40.9,39.2-40.9c10.3,0,22.4,5,29.4,12.6,1.6,1.7,4.8,6.6,5.2,8l-10.7.1c-5.5-7.6-14.1-11.9-23.6-11.9-17.3,0-30,14.4-30,31.8,0,16.2,10.3,31.6,31.5,31.6,12,0,25.5-10.4,25.9-23h-38.3v-8.8h47.9Z" style="fill:#75756e;"/><path d="m432.2,151.7h-13.7l-23.6-32.7h-7.6v32.7h-11.3v-77.3h13.7c8,0,16.7.1,23.9,3.6,7.6,3.8,11.9,11.1,11.9,18.5,0,11.1-5.7,20.3-18.8,21.6l25.5,33.6h0Zm-45-40.7h6.6c11.5,0,21-1.8,21-14.2s-13.4-13.8-24.6-13.8h-3v28h0Z"/><path d="m455.9,151.7h-11.1v-68.5h-18.1v-8.8h47.4v8.8h-18.1l-.1,68.5h0Z"/><path d="m71.6,130.9l23-57.2h10.6l-33.5,81.4-33.8-81.5h10.6l23.1,57.3h0Z" style="fill:#75756e;"/><path d="m219.7,129.8l21.9-57,21.8,57,21.6-55.4h10.5l-32.1,80.4-21.9-56.7-21.9,56.7-32.1-80.4h10.5l21.7,55.4h0Z"/><path d="m370.4,113.1c0,23-17.8,40.3-39.7,40.3s-39.7-17.4-39.7-40.3,18-40.3,39.7-40.3,39.7,18.1,39.7,40.3Zm-9.5,0c0-17-12.5-31.3-30.3-31.3s-30.3,14.3-30.3,31.3,13.9,31.3,30.3,31.3,30.3-13.7,30.3-31.3Z"/><path d="m456.8,211.6h-117.9c-6.6,0-12,5.4-12,12,0-6.6-5.4-12-12-12h-117.8c-6.6,0-12,5.4-12,12,0-6.6-5.4-12-12-12H55.2c-6.6,0-12,5.4-12,12v218.8c0,6.6,5.4,12,12,12h117.8c6.6,0,12-5.4,12-12,0,6.6,5.4,12,12,12h117.8c6.6,0,12-5.4,12-12,0,6.6,5.4,12,12,12h117.8c6.6,0,12-5.4,12-12v-218.8c.2-6.6-5.2-12-11.8-12h0Z" style="fill:#fff;"/><path d="m456.8,459.4h-117.9c-4.7,0-8.9-1.9-12-5-3.1,3.1-7.3,5-12,5h-117.8c-4.7,0-8.9-1.9-12-5-3.1,3.1-7.3,5-12,5H55.2c-9.4,0-17-7.6-17-17v-218.8c0-9.4,7.6-17,17-17h117.8c4.7,0,8.9,1.9,12,5,3.1-3.1,7.3-5,12-5h117.8c4.7,0,8.9,1.9,12,5,3.1-3.1,7.3-5,12-5h117.8c9.4,0,17,7.6,17,17v218.8c.2,9.4-7.5,17-16.8,17Zm-129.9-22c2.8,0,5,2.2,5,5,0,3.9,3.1,7,7,7h117.8c3.9,0,7-3.1,7-7v-218.8c0-3.9-3.1-7-7-7h-117.8c-3.9,0-7,3.1-7,7,0,2.8-2.2,5-5,5s-5-2.2-5-5c0-3.9-3.1-7-7-7h-117.8c-3.9,0-7,3.1-7,7,0,2.8-2.2,5-5,5s-5-2.2-5-5c0-3.9-3.1-7-7-7H55.2c-3.9,0-7,3.1-7,7v218.8c0,3.9,3.1,7,7,7h117.8c3.9,0,7-3.1,7-7,0-2.8,2.2-5,5-5s5,2.2,5,5c0,3.9,3.1,7,7,7h117.8c3.9,0,7-3.1,7-7,.1-2.8,2.4-5,5.1-5Z"/><path d="m184.7,255.9c-2.8,0-5-2.2-5-5v-12c0-2.8,2.2-5,5-5s5,2.2,5,5v12c0,2.8-2.2,5-5,5Z"/><path d="m184.7,396.6c-2.8,0-5-2.2-5-5v-23.5c0-2.8,2.2-5,5-5s5,2.2,5,5v23.5c0,2.8-2.2,5-5,5Zm0-46.9c-2.8,0-5-2.2-5-5v-23.5c0-2.8,2.2-5,5-5s5,2.2,5,5v23.5c0,2.8-2.2,5-5,5Zm0-46.9c-2.8,0-5-2.2-5-5v-23.4c0-2.8,2.2-5,5-5s5,2.2,5,5v23.4c0,2.8-2.2,5-5,5Z"/><path d="m184.7,432.1c-2.8,0-5-2.2-5-5v-12c0-2.8,2.2-5,5-5s5,2.2,5,5v12c0,2.7-2.2,5-5,5Z"/><path d="m326.8,255.9c-2.8,0-5-2.2-5-5v-12c0-2.8,2.2-5,5-5s5,2.2,5,5v12c0,2.8-2.3,5-5,5Z"/><path d="m326.8,396.6c-2.8,0-5-2.2-5-5v-23.5c0-2.8,2.2-5,5-5s5,2.2,5,5v23.5c0,2.8-2.3,5-5,5Zm0-46.9c-2.8,0-5-2.2-5-5v-23.5c0-2.8,2.2-5,5-5s5,2.2,5,5v23.5c0,2.8-2.3,5-5,5Zm0-46.9c-2.8,0-5-2.2-5-5v-23.4c0-2.8,2.2-5,5-5s5,2.2,5,5v23.4c0,2.8-2.3,5-5,5Z"/><path d="m326.8,432.1c-2.8,0-5-2.2-5-5v-12c0-2.8,2.2-5,5-5s5,2.2,5,5v12c0,2.7-2.3,5-5,5Z"/><g style="isolation:isolate;"><path d="m110.5,302.2h-.4l-21.7,10.3-4.4-20,30.1-14h22.1v113.8h-25.7v-90.1Z"/></g><g style="isolation:isolate;"><path d="m221.5,366.1c4.7,2.5,15.6,7,26.4,7,13.8,0,20.8-6.7,20.8-15.2,0-11.2-11.2-16.3-22.9-16.3h-10.8v-19.1h10.3c8.9-.2,20.3-3.5,20.3-13.1,0-6.8-5.6-11.9-16.8-11.9-9.3,0-19.1,4-23.8,6.8l-5.4-19.2c6.8-4.4,20.5-8.6,35.2-8.6,24.3,0,37.8,12.8,37.8,28.4,0,12.1-6.8,21.5-20.8,26.4v.4c13.7,2.5,24.7,12.8,24.7,27.7,0,20.1-17.7,34.8-46.6,34.8-14.7,0-27.1-3.8-33.8-8l5.4-20.1Z"/></g><g style="isolation:isolate;"><path d="m444.8,324.1v16.8l-46.9,97h-28.2l46.9-91.5v-.4h-52.2v-21.9h80.4Z"/></g><g style="clip-path:url(#b);"><g style="isolation:isolate;"><path d="m361.5,224.9c0-13.6,7.9-23.1,20.3-28.5v-.5c-11-5.6-16.5-14.9-16.5-24.9,0-19.2,17.3-32,40.1-32,26.6,0,37.6,15.4,37.6,29.2,0,9.8-5.2,19.4-16.5,25v.5c11,4.2,20.8,13.7,20.8,28.4,0,20.7-17.3,34.5-43.8,34.5-28.7,0-42-16.3-42-31.7Zm58.8-.9c0-10-7.4-15.9-17.9-18.7-8.8,2.5-13.8,8.8-13.8,17-.2,8.2,6.1,15.9,16.1,15.9s15.6-6.1,15.6-14.2Zm-29.9-53.9c0,7.7,7,12.6,16.1,15.4,6.1-1.8,11.6-7.4,11.6-14.5s-4-14-13.8-14c-9.2,0-13.9,5.9-13.9,13.1Z"/></g></g></svg>